<svg width="70" height="60" viewBox="0 0 70 60" fill="none" xmlns="http://www.w3.org/2000/svg">
<g clip-path="url(#clip0_434_13180)">
<path d="M26.9465 24.8738C28.8987 24.0078 30.7811 23.211 32.6636 22.3796C32.6985 22.4142 32.6985 22.4489 32.7333 22.4489C31.5829 24.2849 30.3977 26.1209 29.2473 27.957C29.2473 27.9916 29.2821 27.9916 29.2821 28.0262C31.0949 26.987 32.8728 25.9824 34.7901 24.8738C34.6855 25.0817 34.6507 25.1856 34.6158 25.2549C33.6049 27.0909 32.6288 28.9616 31.6178 30.7976C31.5132 30.9708 31.4086 31.144 31.2692 31.2826C28.7592 33.7768 26.2493 36.271 23.7393 38.7999C23.7045 38.8346 23.6696 38.8692 23.5302 38.9385C23.321 38.696 23.1118 38.4535 22.8678 38.211C21.9614 37.3103 21.0551 36.4443 20.1487 35.5782C19.9395 35.3704 19.6955 35.2318 19.4166 35.1279C16.8369 34.2965 14.2572 33.4997 11.6427 32.7376C11.2244 32.599 11.0501 32.4604 11.0501 32.0101C10.9804 30.6244 10.8409 29.2387 10.7363 27.8184C13.6995 28.0262 16.5929 28.2341 19.5909 28.4419C19.1377 25.3934 18.7194 22.4142 18.2662 19.3657C19.312 18.95 20.3578 18.4997 21.3339 18.084C21.3688 18.4304 21.3688 18.8115 21.4734 19.1232C21.5431 19.2965 21.7871 19.4697 21.9614 19.5736C22.3798 19.7468 22.8329 19.5389 23.0421 19.1232C23.321 18.6036 23.1467 18.1533 22.4495 17.6336C22.6238 17.5644 22.7632 17.4951 22.9375 17.4258C24.2622 19.92 25.5869 22.3796 26.9465 24.8738ZM29.9096 28.7191C29.0033 28.3727 28.1666 28.0609 27.2951 27.7491C27.2254 27.957 27.1556 28.1648 27.0511 28.3727C27.9226 28.6844 28.7592 28.9962 29.6307 29.3426C29.7702 29.1348 29.8399 28.9616 29.9096 28.7191Z" fill="white"/>
<path d="M35.8711 24.909C37.7536 25.9829 39.5315 26.9875 41.3093 28.0268C41.3442 28.0268 41.3442 27.9921 41.3791 27.9921C40.1938 26.1561 39.0434 24.2854 37.7884 22.3455C39.8103 23.2462 41.7277 24.0776 43.645 24.909C44.9697 22.4147 46.3293 19.9552 47.654 17.4609C47.8283 17.5302 48.0026 17.5995 48.142 17.6688C47.4448 18.2231 47.2705 18.7427 47.5842 19.2623C47.8283 19.6434 48.3163 19.782 48.7346 19.6087C49.2576 19.3662 49.397 18.8813 49.153 18.1538C49.2924 18.1884 49.397 18.2231 49.5016 18.2577C50.3034 18.6041 51.1052 18.9505 51.9418 19.2623C52.2556 19.3662 52.3601 19.5395 52.3253 19.8859C52.1161 21.2023 51.9069 22.5533 51.7326 23.9044C51.4886 25.4286 51.2795 26.9529 51.0354 28.5464C53.9637 28.3385 56.892 28.1307 59.8552 27.9228C59.8203 28.7196 59.7506 29.4817 59.7157 30.2438C59.6809 30.902 59.5763 31.5949 59.5763 32.2531C59.5763 32.5995 59.4368 32.7381 59.1231 32.8074C56.5085 33.6041 53.894 34.4009 51.3143 35.2323C50.9657 35.3362 50.6171 35.5441 50.3382 35.8212C49.2575 36.8951 48.2117 38.0037 47.0962 39.1122C46.9219 38.9736 46.8173 38.8697 46.7127 38.8004C44.2725 36.3755 41.7974 33.9505 39.3572 31.491C39.2526 31.387 39.1131 31.2485 39.0434 31.1099C37.9976 29.1699 36.9518 27.23 35.9408 25.3247C35.9757 25.1515 35.9408 25.0822 35.8711 24.909ZM44.0285 27.7496C43.157 28.0614 42.3203 28.4078 41.4488 28.7196C41.5534 28.9621 41.6231 29.1353 41.6928 29.3432C42.5992 28.9967 43.4358 28.685 44.2725 28.3732C44.2028 28.1653 44.133 27.9575 44.0285 27.7496Z" fill="white"/>
<path d="M32.036 32.3203C35.6267 35.8538 39.2522 39.3873 42.8777 42.9901C40.3328 45.5536 37.8577 48.0478 35.3478 50.5767C31.7223 46.9393 28.1317 43.3365 24.541 39.7684C27.0161 37.3088 29.5609 34.7799 32.036 32.3203Z" fill="white"/>
<path d="M46.0854 39.804C45.3184 40.6008 44.5166 41.4322 43.6451 42.2983C41.1352 39.7694 38.6252 37.2405 36.1152 34.7116C36.9519 33.9149 37.7885 33.1181 38.5903 32.3906C41.0654 34.8156 43.5754 37.3098 46.0854 39.804Z" fill="white"/>
<path d="M63.0977 21.9981C64.1086 21.7903 67.5946 20.1967 68.4661 19.5039C68.9891 20.5778 69.4771 21.6517 69.9651 22.7256C70.1046 23.0374 69.6514 24.042 69.3725 24.2152C68.8496 24.5616 68.2918 24.6309 67.7341 24.2845C67.6644 24.4231 67.6295 24.4924 67.5946 24.5963C67.4552 24.9427 67.3506 25.2545 66.9323 25.4623C66.2002 25.9127 65.5379 25.8088 64.8755 25.4623C64.771 25.3931 64.6315 25.3584 64.5967 25.2545C64.1086 24.1459 63.6206 23.072 63.0977 21.9981ZM66.0956 22.587C65.8865 22.6563 65.747 22.7256 65.6076 22.7949C65.015 23.072 64.9453 23.3492 65.4333 23.7649C65.5727 23.9034 65.8865 23.9727 66.0259 23.9034C66.2002 23.7995 66.3745 23.557 66.3745 23.3492C66.3745 23.1067 66.2002 22.8642 66.0956 22.587ZM68.0478 21.6864C67.2112 21.9981 67.2112 21.9981 67.4203 22.4485C67.5598 22.7603 67.6992 23.1067 68.1524 22.8988C68.5359 22.7256 68.501 22.3446 68.0478 21.6864Z" fill="white"/>
<path d="M5.40339 26.6048C3.66036 25.6348 1.88247 24.8727 0 24.1798C0.104582 23.9027 0.244024 23.5563 0.418327 23.2098C0.697211 22.5516 0.976096 21.9281 1.28984 21.3045C1.39442 21.0967 1.60359 20.9235 1.81275 20.8195C2.57968 20.3346 3.34661 20.3692 4.11355 20.8542C4.39243 21.0274 4.70618 21.2006 5.01992 21.2699C6.06574 21.5124 6.51892 22.2399 6.72809 23.1752C6.76295 23.3138 6.76295 23.4523 6.72809 23.5563C6.30976 24.5955 5.85657 25.6001 5.40339 26.6048ZM1.95219 23.1059C2.78884 23.487 3.55578 23.8334 4.35757 24.1798C4.84562 24.3877 5.05478 24.2837 5.08964 23.7295C5.1245 23.3138 4.91534 23.0713 4.56673 22.8981C4.18327 22.7249 3.7998 22.5516 3.41633 22.3784C2.61454 22.032 2.3008 22.1706 1.95219 23.1059Z" fill="white"/>
<path d="M44.8301 7.23907C45.4924 6.30373 46.9217 2.66632 47.0263 1.76562C47.9675 2.14669 48.8739 2.52775 49.8151 2.83953C50.2683 3.01274 50.5123 3.28987 50.7215 3.70558C51.0353 4.36378 51.0701 4.91805 50.7564 5.54161C50.4426 6.16516 50.2335 6.858 49.9546 7.48156C49.85 7.68941 49.6408 7.89727 49.4317 8.03583C48.6647 8.55546 47.8978 8.52082 47.0612 8.07048C46.3291 7.7587 45.5621 7.55084 44.8301 7.23907ZM48.2464 3.70558C47.9327 4.50235 47.5841 5.33375 47.2355 6.16516C46.9914 6.71944 47.2006 6.78872 47.6886 6.858C48.0721 6.92729 48.3859 6.71944 48.5253 6.33837C48.6996 5.92267 48.839 5.50696 49.0133 5.09126C49.362 4.32914 49.1876 3.94807 48.2464 3.70558Z" fill="white"/>
<path d="M39.8446 0.207031C40.2281 0.276315 40.6464 0.380241 41.0648 0.414883C41.4134 0.449525 41.5528 0.622736 41.6574 0.899872C41.9363 1.73128 42.25 2.52805 42.5986 3.49802C42.7381 2.49341 42.8775 1.662 42.9821 0.761304C43.4701 0.86523 44.0279 0.969156 44.4811 1.03844C44.0976 2.97839 43.7142 4.88371 43.3307 6.82366C42.9821 6.75438 42.6683 6.71973 42.3895 6.61581C42.2849 6.58117 42.1803 6.40796 42.1454 6.30403C41.762 5.29941 41.3785 4.29479 41.0299 3.29017C40.995 3.22089 40.9602 3.11696 40.8905 2.97839C40.7162 4.12158 40.5419 5.16084 40.3676 6.26939C39.8795 6.16546 39.3217 6.06153 38.7988 5.99225C39.2869 4.08694 39.6703 2.18163 39.8446 0.207031Z" fill="white"/>
<path d="M10.0742 18.188C10.0393 18.2573 9.96957 18.3958 9.89985 18.5344C9.65583 18.9155 9.30722 19.2619 9.13292 19.6776C8.74946 20.5783 7.87794 20.509 7.14587 20.6476C7.07615 20.6476 6.93671 20.5783 6.86699 20.509C5.99547 19.9201 5.12396 19.3312 4.25244 18.673C4.04328 18.5344 4.00842 18.188 3.90384 17.9109C3.62495 17.2527 3.79926 16.6984 4.25244 16.2134C4.35702 16.1095 4.46161 15.9709 4.53133 15.8323C4.91479 15.0009 5.57714 14.6199 6.51838 14.6545C6.69268 14.6545 6.90185 14.6891 7.04129 14.7931C7.84308 15.3473 8.64487 15.9016 9.44667 16.4559C9.72555 16.6291 9.89985 16.837 9.93471 17.1834C9.93471 17.4952 10.0044 17.8069 10.0742 18.188ZM7.77336 18.8808C7.9128 18.7423 8.19169 18.5691 8.26141 18.3266C8.33113 18.1187 8.26141 17.7723 8.12196 17.6337C7.5642 17.1834 6.97157 16.8023 6.4138 16.4212C6.13491 16.248 5.89089 16.352 5.68173 16.5598C5.47256 16.8023 5.22854 17.1487 5.50742 17.3566C6.16977 17.9109 6.86699 18.3266 7.5642 18.8115C7.5642 18.8462 7.59906 18.8462 7.77336 18.8808Z" fill="white"/>
<path d="M27.8889 6.75631C27.6797 6.61774 27.4357 6.44453 27.1917 6.30596C26.7036 6.06347 26.4945 5.6824 26.3899 5.16277C26.2505 4.29672 26.0413 3.43067 25.9019 2.52998C25.867 2.35677 25.9367 2.14892 26.0064 1.97571C26.355 1.1443 27.0174 0.693953 27.9238 0.693953C27.9935 0.693953 28.0632 0.693953 28.0981 0.659311C29.0044 0.278248 29.7365 0.590027 30.3989 1.17894C30.5034 1.28287 30.608 1.45608 30.6429 1.59465C30.8521 2.59926 31.0612 3.63853 31.2355 4.67779C31.2704 4.81635 31.2007 5.02421 31.1309 5.16277C30.7823 5.95954 30.1897 6.40989 29.2485 6.44453C28.8301 6.51381 28.377 6.65238 27.8889 6.75631ZM29.4228 4.40065C29.2833 3.74245 29.1787 3.08425 29.0044 2.39141C28.9347 2.04499 28.621 1.94107 28.2375 2.01035C27.8192 2.07963 27.61 2.32213 27.6797 2.73783C27.7843 3.39603 27.9238 4.01959 28.0632 4.67779C28.1678 5.05885 28.4815 5.23206 28.865 5.16277C29.2136 5.05885 29.4576 4.851 29.4228 4.40065Z" fill="white"/>
<path d="M22.1013 56.7453C22.1013 57.75 22.1013 58.8239 22.1013 59.9324C21.6133 59.9324 21.0207 59.9324 20.4978 59.9324C20.6372 57.9924 20.7069 56.0525 20.4629 54.0779C20.9509 54.0779 21.4738 54.0433 21.9619 54.0779C22.1013 54.0779 22.2408 54.2511 22.3105 54.355C22.7637 55.0825 23.2169 55.8446 23.6352 56.6068C23.6352 55.7754 23.6352 54.9439 23.6352 54.0779C24.1232 54.0779 24.681 54.0779 25.2736 54.0779C24.9599 56.0179 25.2388 57.9578 25.0993 59.9324C24.7856 59.9324 24.4719 59.967 24.1581 59.9324C24.0187 59.8978 23.8792 59.7592 23.8095 59.6206C23.2517 58.6506 22.6591 57.6807 22.1013 56.7453Z" fill="white"/>
<path d="M64.5271 13.6836C64.8408 14.1339 65.2243 14.6536 65.538 15.0693C64.4573 15.8314 63.4115 16.5589 62.3657 17.321C62.052 17.5635 61.9822 17.8753 62.2263 18.2217C62.4354 18.5335 62.784 18.672 63.0978 18.4296C64.1436 17.6674 65.294 17.0439 66.2004 16.0046C66.549 16.4896 66.9325 16.9746 67.2811 17.4596C65.8866 18.1524 64.7014 19.157 63.4813 20.0577C63.3767 20.127 63.2372 20.1617 63.0978 20.1617C62.7143 20.127 62.3308 20.0577 61.9474 19.9884C61.8079 19.9538 61.7034 19.8499 61.5988 19.7113C61.3199 19.3649 61.1107 18.9492 60.797 18.6374C60.0998 17.9792 60.4484 17.2517 60.5529 16.5589C60.5529 16.4896 60.6575 16.4203 60.7272 16.351C61.7382 15.6235 62.784 14.9307 63.795 14.2032C64.039 14.0647 64.2482 13.8914 64.5271 13.6836Z" fill="white"/>
<path d="M45.1091 57.0209C45.1091 56.6398 45.1439 56.2934 45.1091 55.9123C45.0394 55.3927 45.2485 55.0116 45.632 54.6306C46.0503 54.2149 46.4338 53.9724 47.0264 54.0417C47.2356 54.0763 47.4447 54.0763 47.619 54.0417C48.5603 53.8338 49.0483 54.5267 49.5712 55.0809C49.6409 55.1502 49.6409 55.3234 49.6409 55.4273C49.6409 56.5012 49.6409 57.5405 49.6409 58.6144C49.6409 58.7876 49.5364 58.9608 49.4318 59.0994C48.9437 59.8269 48.2465 60.1387 47.375 59.9655C47.3402 59.9655 47.3053 59.9655 47.2704 59.9655C46.3292 60.2079 45.7366 59.6537 45.2137 58.9955C45.1439 58.8915 45.0742 58.7183 45.0742 58.5798C45.1091 58.0601 45.1091 57.5405 45.1091 57.0209ZM48.0722 56.9862C48.0722 56.6398 48.0722 56.2934 48.0722 55.9816C48.0374 55.5659 47.7933 55.3234 47.4099 55.3234C46.9915 55.3234 46.7127 55.5659 46.7127 55.9816C46.7127 56.6398 46.6778 57.3327 46.7127 58.0255C46.7127 58.4412 46.9915 58.6837 47.4099 58.6837C47.7933 58.6837 48.0722 58.4412 48.1071 58.0255C48.1071 57.6791 48.0722 57.3327 48.0722 56.9862Z" fill="white"/>
<path d="M35.5231 0C36.1506 0 36.7432 0 37.3707 0C37.0918 1.52425 37.301 3.0485 37.3359 4.57275C37.3359 4.71132 37.2661 4.84988 37.1964 4.95381C36.6735 5.68129 36.0112 6.06236 35.0699 5.88915C35.0002 5.88915 34.9305 5.88915 34.8956 5.88915C33.9892 6.097 33.3617 5.64665 32.8388 4.98845C32.7691 4.88453 32.6994 4.7806 32.6994 4.67667C32.6994 3.36028 32.6994 2.07852 32.6645 0.762125C32.6645 0.554273 32.56 0.311778 32.4902 0.034642C33.1874 0.034642 33.8149 0.034642 34.4076 0.034642C34.4076 1.24711 34.4076 2.49423 34.4076 3.74134C34.4076 4.26097 34.6516 4.50346 35.1048 4.46882C35.5231 4.46882 35.7671 4.19169 35.7671 3.7067C35.7671 2.806 35.7671 1.90531 35.7323 1.00462C35.6974 0.692841 35.5928 0.381062 35.5231 0Z" fill="white"/>
<path d="M11.6432 10.3226C11.19 10.6691 10.7019 10.9808 10.2488 11.3619C9.76071 11.8122 9.76071 12.2972 10.2488 12.7822C10.5625 13.1286 10.9111 13.4404 11.2249 13.7522C11.6083 14.1333 12.2009 14.064 12.4101 13.5443C12.4798 13.4058 12.4101 13.1286 12.3055 13.0247C11.9569 12.6783 11.5386 12.4012 11.19 12.1587C11.6083 11.743 12.0964 11.2233 12.6193 10.6691C12.7587 11.3965 13.3513 11.743 13.8045 12.2279C13.944 12.3665 14.0137 12.5744 14.0486 12.7476C14.188 13.579 13.944 14.2718 13.2119 14.7568C13.177 14.7915 13.1422 14.8261 13.1073 14.8607C12.5844 15.6921 11.7478 15.7268 10.9111 15.6229C10.7717 15.6229 10.6671 15.5536 10.5625 15.4497C9.83043 14.7222 9.09836 13.9947 8.40115 13.2326C8.29657 13.1286 8.22685 12.9208 8.19198 12.7476C8.15712 11.4312 8.15712 11.4312 9.09836 10.4958C9.37724 10.2187 9.62127 9.94157 9.93501 9.69908C10.0396 9.62979 10.2139 9.56051 10.3185 9.59515C10.7717 9.83765 11.2249 10.1148 11.6432 10.3226Z" fill="white"/>
<path d="M15.2336 5.71484C15.6868 6.02662 16.0702 6.3384 16.4885 6.65018C15.8611 7.03124 15.2336 7.37766 14.5712 7.75872C14.7455 8.00122 14.885 8.20907 15.0244 8.45156C15.3381 8.13979 15.617 7.89729 15.9656 7.58551C16.2794 8.03586 16.5931 8.48621 16.9069 8.93655C16.5931 9.07512 16.3142 9.21369 16.0354 9.35226C15.7565 9.49083 15.8262 9.69868 16.0005 9.87189C16.1748 10.0451 16.2097 10.4608 16.5931 10.1837C17.1509 9.76796 17.6738 9.35226 18.1967 8.90191C18.3362 9.31762 18.4756 9.8026 18.615 10.3222C18.6499 10.3915 18.5802 10.5647 18.5105 10.5994C17.5692 11.2576 16.6628 11.8811 15.7216 12.5393C15.1987 11.3961 13.1768 8.48621 12.375 7.72408V7.68944C13.3162 7.03124 14.2575 6.37304 15.2336 5.71484Z" fill="white"/>
<path d="M32.2109 54.0781C33.2568 54.0781 34.3374 54.0781 35.4181 54.0781C35.5227 54.0781 35.6621 54.1474 35.697 54.2513C35.8713 54.7017 36.0107 55.152 36.1502 55.5677C35.5575 55.5331 35.0346 55.4638 34.4769 55.4638C33.8494 55.4292 33.8494 55.4638 33.9888 56.2259C34.3723 56.1913 34.7906 56.122 35.1741 56.0874C35.1741 56.607 35.1741 57.1613 35.1741 57.7155C34.8952 57.6809 34.6163 57.6116 34.3374 57.577C34.0237 57.5423 33.8842 57.6462 33.9191 57.9927C33.954 58.2698 33.8494 58.6162 34.3026 58.5816C34.9649 58.5469 35.5924 58.4777 36.2896 58.443C36.1502 58.8934 35.9759 59.413 35.8016 59.9673C34.5815 59.9673 33.3613 59.9673 32.2109 59.9673C32.3504 57.9927 32.3504 56.0527 32.2109 54.0781Z" fill="white"/>
<path d="M11.2598 58.3732C11.8524 58.4425 12.445 58.5118 13.0377 58.5464C13.3863 58.5811 13.6651 58.4425 13.7 58.0614C13.7349 57.6804 13.456 57.6111 13.1422 57.5072C12.7588 57.4032 12.3753 57.334 12.0267 57.1261C11.2249 56.7104 11.3992 55.9136 11.4341 55.2208C11.4689 54.8397 12.5496 54.043 12.9331 54.043C13.4908 54.043 14.0138 54.043 14.5715 54.043C14.8155 54.043 14.9201 54.1123 14.9898 54.3547C15.0944 54.7704 15.2687 55.1515 15.3733 55.5326C14.8155 55.4979 14.2578 55.4287 13.7 55.4287C13.4908 55.4287 13.2817 55.6711 13.1074 55.7751C13.2817 55.9136 13.4211 56.0868 13.6303 56.1908C14.0138 56.364 14.4321 56.3986 14.7807 56.6065C15.6871 57.1261 15.4082 57.9922 15.4082 58.7889C15.4082 59.17 14.2926 59.9321 13.9092 59.9321C13.3165 59.9321 12.7239 59.9321 12.1661 59.9321C11.9221 59.9321 11.8175 59.8628 11.7478 59.6203C11.5735 59.2046 11.3992 58.7543 11.2598 58.3732Z" fill="white"/>
<path d="M21.2658 7.30894C21.8584 7.13573 22.451 6.96252 23.0088 6.78931C23.3225 6.68538 23.4968 6.47753 23.3923 6.13111C23.2877 5.78469 23.0088 5.81933 22.7299 5.85397C22.3464 5.88862 21.9281 5.9579 21.5447 5.92326C20.6383 5.81933 20.464 5.05721 20.2897 4.36437C20.22 4.12187 20.464 3.8101 20.5686 3.49832C20.708 3.01333 21.0217 2.70155 21.5447 2.56298C21.9281 2.45906 22.3116 2.32049 22.6602 2.14728C22.9739 2.00871 23.1831 2.00871 23.3923 2.32049C23.6014 2.63227 23.8803 2.9094 24.0895 3.18654C23.5666 3.35975 23.0437 3.49832 22.5208 3.63688C22.207 3.74081 21.9978 3.91402 22.0676 4.2258C22.1373 4.57222 22.451 4.43365 22.6951 4.39901C23.0785 4.36437 23.462 4.29508 23.8455 4.32973C24.8913 4.46829 25.0307 5.40363 25.2747 6.2004C25.4142 6.6161 24.6472 7.69 24.2289 7.82857C23.706 8.03642 23.1831 8.24428 22.6253 8.41749C22.5208 8.45213 22.3116 8.45213 22.2419 8.38284C21.8584 8.07107 21.5447 7.65536 21.2658 7.30894Z" fill="white"/>
<path d="M50.9655 55.7374C50.9655 55.6335 50.9655 55.5988 50.9655 55.5642C51.1398 55.0792 51.1747 54.421 51.5233 54.1439C51.837 53.9014 52.4645 54.1439 52.9525 54.0399C53.8938 53.8667 54.347 54.5249 54.8699 55.0792C55.1139 55.3217 54.9396 56.6035 54.6956 56.8459C54.1727 57.3656 53.6498 57.8852 53.1268 58.4048C53.1268 58.4395 53.1617 58.5088 53.1617 58.5434C53.8589 58.4741 54.591 58.4048 55.3231 58.3355C55.1836 58.7859 55.0093 59.3055 54.835 59.7905C54.8002 59.8944 54.6259 59.9637 54.5213 59.9637C53.5452 59.9637 52.5342 59.9984 51.5581 59.9637C51.4187 59.9637 51.2095 59.7559 51.1049 59.6173C50.7215 58.9591 50.7563 58.9591 51.2792 58.4048C51.9067 57.7813 52.4994 57.1924 53.092 56.5688C53.336 56.3263 53.4755 56.0492 53.336 55.7028C53.1966 55.3563 52.8828 55.3217 52.5691 55.3563C52.3251 55.391 52.0462 55.4256 51.8021 55.4949C51.5233 55.5295 51.2792 55.6335 50.9655 55.7374Z" fill="white"/>
<path d="M39.5658 55.7409C39.7749 55.1174 39.9493 54.5978 40.1236 54.0781C40.8556 54.0781 41.5877 54.0781 42.2849 54.0781C42.4243 54.0781 42.6335 54.182 42.7032 54.286C43.017 54.667 43.5399 54.8402 43.5747 55.4638C43.6445 56.2606 43.4702 56.9188 42.773 57.4384C42.3895 57.7155 42.0757 58.0966 41.7271 58.4084C41.762 58.4777 41.762 58.5123 41.7969 58.5816C42.4941 58.5123 43.1913 58.443 43.9234 58.3737C43.7839 58.8241 43.6096 59.3437 43.4004 59.8287C43.3656 59.898 43.1913 59.9673 43.0867 60.0019C42.1106 60.0019 41.1345 60.0019 40.1584 60.0019C39.8098 60.0019 39.7749 59.7594 39.6355 59.5862C39.3218 59.1359 39.3566 58.8241 39.8098 58.4777C40.4373 57.958 40.9951 57.3345 41.5528 56.7456C41.6574 56.6416 41.7969 56.5031 41.8666 56.3645C42.1455 55.8449 41.9014 55.3945 41.3088 55.3945C40.9951 55.3945 40.6465 55.4638 40.3327 55.5331C40.1236 55.5331 39.8795 55.637 39.5658 55.7409Z" fill="white"/>
<path d="M56.8579 11.8485C56.3349 12.2295 55.8469 12.576 55.3588 12.9224C54.7662 12.5067 54.1736 12.091 53.6507 11.6753C53.5112 11.5367 53.4764 11.2942 53.3718 11.0864C53.0581 10.2203 53.3021 9.52747 53.8947 8.86927C54.313 8.41892 54.6268 7.93393 54.9405 7.4143C55.1497 7.13717 55.3937 6.9986 55.7075 6.92931C56.5441 6.72146 57.2413 6.82539 57.8339 7.44894C58.078 7.69144 58.4266 7.89929 58.7403 8.10714C58.566 8.66142 58.3917 9.18105 58.1825 9.8046C57.9734 9.56211 57.8339 9.35426 57.6596 9.1464C57.2065 8.52285 56.3349 8.24571 55.7772 9.18105C55.6726 9.3889 55.4983 9.56211 55.3588 9.76996C54.7662 10.5667 55.0102 11.2596 55.9515 11.606C56.2304 11.6753 56.5092 11.7446 56.8579 11.8485Z" fill="white"/>
<path d="M30.9207 55.7746C30.5372 55.6706 30.2235 55.5321 29.9097 55.4628C29.2474 55.3242 28.5153 55.636 28.585 56.5367C28.6199 56.8138 28.6199 57.091 28.585 57.3681C28.4804 58.5113 29.3171 58.6845 30.1537 58.5113C30.3978 58.442 30.6418 58.3381 30.9904 58.2341C30.8161 58.7884 30.6767 59.2734 30.4675 59.7584C30.4326 59.8277 30.2583 59.9316 30.1537 59.9316C29.5263 59.9316 28.9336 59.9663 28.3061 59.9316C28.1667 59.9316 27.9924 59.8277 27.853 59.7584C27.086 59.2041 26.6677 58.5113 26.842 57.5067C26.9117 57.1602 26.9117 56.7792 26.842 56.3981C26.7374 55.5321 26.9814 54.9085 27.6787 54.3542C27.9575 54.1464 28.1667 54.0078 28.5153 54.0078C29.0034 54.0425 29.4914 54.0425 29.9446 54.0078C30.1886 54.0078 30.328 54.0771 30.3978 54.3196C30.6069 54.8392 30.7464 55.2896 30.9207 55.7746Z" fill="white"/>
<path d="M56.6133 13.8573C58.0426 12.6448 59.4021 11.2591 60.6571 9.76953C61.0754 10.1852 61.5635 10.6702 61.9818 11.1552C60.7617 11.8827 59.925 13.1298 58.7398 14.1691C59.3324 14.6541 59.8902 15.0698 60.4479 15.5201C60.0296 15.728 59.5764 15.9705 59.0884 16.1783C59.0187 16.2129 58.8095 16.1437 58.7398 16.0744C58.0077 15.3123 57.2756 14.5501 56.6133 13.8573Z" fill="white"/>
<path d="M18.7558 59.9326C18.1632 59.9326 17.5008 59.9326 16.9082 59.9326C17.0825 57.9927 17.0476 56.0527 16.9082 54.0781C17.5008 54.0781 18.1632 54.0781 18.7907 54.0781C18.5815 56.0181 18.6164 57.958 18.7558 59.9326Z" fill="white"/>
<path d="M58.5304 59.9326C57.9377 59.9326 57.2754 59.9326 56.613 59.9326C57.0314 58.5123 56.7176 57.0573 56.8571 55.6024C56.5782 55.6024 56.4039 55.5677 56.125 55.5677C56.369 55.0827 56.5782 54.6324 56.8222 54.2167C56.8571 54.1474 56.9965 54.0781 57.0662 54.0781C57.4846 54.0781 57.9378 54.0781 58.3909 54.0781C58.3909 54.7363 58.3909 55.3599 58.3909 55.9488C58.3909 56.6416 58.3561 57.3691 58.3909 58.062C58.4258 58.6855 58.4955 59.3091 58.5304 59.9326Z" fill="white"/>
</g>
<defs>
<clipPath id="clip0_434_13180">
<rect width="70" height="60" fill="white"/>
</clipPath>
</defs>
</svg>
